# xmcd
#
# Track frame offsets:
#	182
#	33615
#	46127
#	73205
#	91737
#	121505
#	137120
#	148430
#	176797
#	194197
#	213662
#	230150
#	250397
#
# Disc length: 3465 seconds
#
# Revision: 0
# Processed by: cddbd v1.5.2PL0 Copyright (c) Steve Scherf et al.
# Submitted via: EasyCDDAExtractor 16.0.8.1
#
DISCID=d30d870d
DTITLE=Various Artist - Cantece lautaresti, La Salul cel negru
DYEAR=1990
DGENRE=
TTITLE0=Dona Dumitru Siminica - Mosule, te-as intreba
TTITLE1=Faramita Lambru - La Calul balan
TTITLE2=Dona Dumitru Siminica - Inel, inel de aur
TTITLE3=Dona Dumitru Siminica - Lelita, Floare
TTITLE4=Dona Dumitru Siminica - Cine are fata mare
TTITLE5=Faramita Lambru - La crama din Dragasani
TTITLE6=Dona Dumitru Siminica - Am iubit si-am sa iubesc
TTITLE7=Dona Dumitru Siminica - Afara e intuneric
TTITLE8=Faramita Lambru - Sapte vai si-o vale adanca
TTITLE9=Dona Dumitru Siminica - Foaie verde trei smicele
TTITLE10=Dona Dumitru Siminica - La Salul cel negru
TTITLE11=Maria Tanase and Faramita Lambru - Trei focuri arde pe lume
TTITLE12=Faramita Lambru - Hora lui Faramita
EXTD=
EXTT0=
EXTT1=
EXTT2=
EXTT3=
EXTT4=
EXTT5=
EXTT6=
EXTT7=
EXTT8=
EXTT9=
EXTT10=
EXTT11=
EXTT12=
PLAYORDER=
